Coordinates
version=1
nRows=33
nColumns=38
inDegrees=no

Units are S.I. units (second, meters, Newtons, ...)
If the header above contains a line with 'inDegrees', this indicates whether rotational values are in degrees (yes) or radians (no).

endheader
time	pelvis_tilt	pelvis_list	pelvis_rotation	pelvis_tx	pelvis_ty	pelvis_tz	hip_flexion_r	hip_adduction_r	hip_rotation_r	knee_angle_r	ankle_angle_r	subtalar_angle_r	mtp_angle_r	hip_flexion_l	hip_adduction_l	hip_rotation_l	knee_angle_l	ankle_angle_l	subtalar_angle_l	mtp_angle_l	lumbar_extension	lumbar_bending	lumbar_rotation	arm_flex_r	arm_add_r	arm_rot_r	elbow_flex_r	pro_sup_r	wrist_flex_r	wrist_dev_r	arm_flex_l	arm_add_l	arm_rot_l	elbow_flex_l	pro_sup_l	wrist_flex_l	wrist_dev_l
9.76	2.88036	1.42581	-1.17736	0.655118	0.816327	0.956104	-0.0250977	0.00525617	-0.245711	0.423053	-0.27867	0	0	-0.0997007	-0.0914602	0.00349452	0.228129	-0.354197	0	0	-0.567834	0.211019	-0.0641936	-0.290972	-0.269483	-0.136946	1.33956	1.5708	0	0	-0.187051	-0.169148	-0.145077	1.0639	1.5708	0	0
9.77	2.87906	1.42616	-1.17637	0.655002	0.816579	0.95602	-0.0248395	0.00521233	-0.245731	0.423154	-0.278368	0	0	-0.0994259	-0.091365	0.00308737	0.228555	-0.353732	0	0	-0.566576	0.210432	-0.0639288	-0.287746	-0.271471	-0.136431	1.34514	1.5708	0	0	-0.183757	-0.169441	-0.145419	1.06702	1.5708	0	0
9.78	2.8771	1.42628	-1.17484	0.654875	0.816848	0.955982	-0.0248351	0.00486728	-0.245929	0.422983	-0.277958	0	0	-0.0993599	-0.0914828	0.00227196	0.228965	-0.353327	0	0	-0.565563	0.20979	-0.0636517	-0.284169	-0.273806	-0.135831	1.35052	1.5708	0	0	-0.180305	-0.169636	-0.1461	1.06976	1.5708	0	0
9.79	2.87566	1.4262	-1.17408	0.65479	0.81714	0.955951	-0.0249497	0.00467981	-0.246379	0.423324	-0.277404	0	0	-0.0995437	-0.0916534	0.000982101	0.22944	-0.352831	0	0	-0.564837	0.208974	-0.063207	-0.280306	-0.276275	-0.13451	1.35499	1.5708	0	0	-0.176848	-0.169901	-0.146854	1.07256	1.5708	0	0
9.8	2.87492	1.42588	-1.17382	0.654707	0.817399	0.955936	-0.0252455	0.0046423	-0.24717	0.424238	-0.277074	0	0	-0.0999297	-0.0918135	0.000387064	0.229934	-0.352268	0	0	-0.564488	0.20827	-0.0629121	-0.275964	-0.278485	-0.133093	1.35876	1.5708	0	0	-0.173274	-0.170188	-0.14759	1.07561	1.5708	0	0
9.81	2.87373	1.42555	-1.17293	0.654666	0.817613	0.955937	-0.0257177	0.00493666	-0.247397	0.424366	-0.276748	0	0	-0.100287	-0.0920775	0.000451934	0.230347	-0.351761	0	0	-0.564199	0.207608	-0.0625391	-0.271069	-0.280403	-0.131927	1.36174	1.5708	0	0	-0.169346	-0.170533	-0.148139	1.07882	1.5708	0	0
9.82	2.87163	1.42537	-1.17149	0.654748	0.817835	0.95593	-0.0260111	0.00552991	-0.24683	0.424152	-0.27647	0	0	-0.100606	-0.0925419	0.00025353	0.230673	-0.351277	0	0	-0.563766	0.206752	-0.0616141	-0.265902	-0.281791	-0.131349	1.36384	1.5708	0	0	-0.164929	-0.170986	-0.148354	1.0818	1.5708	0	0
9.83	2.87036	1.42528	-1.17116	0.654785	0.81806	0.955899	-0.0260883	0.00569858	-0.246421	0.424316	-0.27622	0	0	-0.101022	-0.0926964	-0.000189947	0.230892	-0.35077	0	0	-0.563295	0.205795	-0.0603017	-0.260761	-0.282919	-0.13169	1.36573	1.5708	0	0	-0.160026	-0.171415	-0.147973	1.08428	1.5708	0	0
9.84	2.86927	1.42519	-1.17146	0.654819	0.818288	0.955886	-0.0263074	0.00593067	-0.244786	0.423918	-0.276839	0	0	-0.101691	-0.0926889	-0.000968803	0.230764	-0.350423	0	0	-0.561848	0.204004	-0.0687124	-0.244632	-0.288582	-0.116083	1.35904	1.5708	0	0	-0.162361	-0.169198	-0.160133	1.0911	1.5708	0	0
9.85	2.86843	1.42499	-1.17144	0.654817	0.818523	0.955839	-0.0269048	0.00635412	-0.244094	0.423197	-0.276554	0	0	-0.102213	-0.0926856	-0.000785483	0.231064	-0.349665	0	0	-0.561238	0.203136	-0.068786	-0.237454	-0.290718	-0.112258	1.35789	1.5708	0	0	-0.157549	-0.169539	-0.160602	1.09305	1.5708	0	0
9.86	2.86833	1.42487	-1.17214	0.654812	0.818767	0.955774	-0.0274515	0.00673898	-0.243616	0.422689	-0.275811	0	0	-0.102603	-0.0925399	-0.000641365	0.231618	-0.348649	0	0	-0.5605	0.202188	-0.0687811	-0.229972	-0.293025	-0.108178	1.35598	1.5708	0	0	-0.152219	-0.170227	-0.160313	1.09428	1.5708	0	0
9.87	2.86842	1.42479	-1.17307	0.654802	0.818988	0.955684	-0.0276037	0.00679781	-0.243204	0.422926	-0.274905	0	0	-0.102817	-0.0923589	-0.000665745	0.232419	-0.347373	0	0	-0.559879	0.201249	-0.0684107	-0.222395	-0.295543	-0.104672	1.35419	1.5708	0	0	-0.14636	-0.171239	-0.159267	1.09528	1.5708	0	0
9.88	2.86842	1.42472	-1.1739	0.654772	0.819179	0.955583	-0.027307	0.00664569	-0.242926	0.424284	-0.273427	0	0	-0.10285	-0.0921574	-0.000699337	0.233504	-0.345854	0	0	-0.559433	0.200334	-0.0680504	-0.214361	-0.29817	-0.101578	1.35247	1.5708	0	0	-0.140292	-0.172426	-0.158045	1.09637	1.5708	0	0
9.89	2.86852	1.42343	-1.17476	0.654737	0.819319	0.955605	-0.0282609	0.00658901	-0.243562	0.425407	-0.276422	0	0	-0.104453	-0.0924933	-0.000899906	0.233531	-0.347314	0	0	-0.56153	0.200197	-0.061262	-0.212974	-0.298137	-0.108671	1.35658	1.5708	0	0	-0.129467	-0.174763	-0.149727	1.09533	1.5708	0	0
9.9	2.89261	1.42641	-1.19855	0.655218	0.820034	0.954582	-0.0169357	-0.00253539	-0.248995	0.454074	-0.265254	0	0	-0.102647	-0.0887636	-0.00185792	0.23601	-0.342506	0	0	-0.556117	0.194036	-0.071379	-0.198979	-0.299522	-0.0957704	1.34896	1.5708	0	0	-0.131166	-0.177786	-0.156394	1.10212	1.5708	0	0
9.91	2.86116	1.42202	-1.16817	0.654608	0.819514	0.955755	-0.0268142	0.00510271	-0.249545	0.431949	-0.276667	0	0	-0.104831	-0.0938564	-0.000823594	0.235724	-0.344213	0	0	-0.561705	0.200328	-0.0709147	-0.184409	-0.305287	-0.087903	1.34491	1.5708	0	0	-0.12325	-0.175069	-0.159534	1.10136	1.5708	0	0
9.92	2.85948	1.422	-1.16701	0.654564	0.819592	0.955748	-0.027479	0.00594228	-0.24707	0.430093	-0.276515	0	0	-0.104379	-0.0938915	-0.00104982	0.236777	-0.343649	0	0	-0.561857	0.200084	-0.071994	-0.174108	-0.307419	-0.0835105	1.34256	1.5708	0	0	-0.117125	-0.176034	-0.159887	1.10312	1.5708	0	0
9.93	2.85775	1.42172	-1.16591	0.654629	0.819737	0.95571	-0.0261626	0.00539072	-0.250399	0.434263	-0.275546	0	0	-0.104433	-0.0943588	-0.0022123	0.23751	-0.343158	0	0	-0.562032	0.199672	-0.0728902	-0.163719	-0.30907	-0.0791484	1.33998	1.5708	0	0	-0.110956	-0.17739	-0.159878	1.10492	1.5708	0	0
9.94	2.85575	1.42159	-1.16427	0.654667	0.819868	0.955633	-0.0252261	0.00540828	-0.253071	0.43719	-0.274391	0	0	-0.10411	-0.0947913	-0.00275708	0.238595	-0.342746	0	0	-0.561955	0.199321	-0.0739302	-0.153339	-0.31062	-0.0746001	1.33736	1.5708	0	0	-0.104333	-0.178928	-0.159318	1.10621	1.5708	0	0
9.95	2.85327	1.42121	-1.16176	0.6546	0.819927	0.955612	-0.025016	0.00526734	-0.254644	0.438654	-0.27374	0	0	-0.103781	-0.095259	-0.00255924	0.239719	-0.342396	0	0	-0.562152	0.199487	-0.0749264	-0.142821	-0.312645	-0.0695767	1.33473	1.5708	0	0	-0.096742	-0.180312	-0.158406	1.10658	1.5708	0	0
9.96	2.85139	1.42095	-1.15959	0.654511	0.81995	0.955589	-0.0249562	0.00529764	-0.25599	0.439233	-0.273854	0	0	-0.10332	-0.09556	-0.00179471	0.240628	-0.341973	0	0	-0.562189	0.199541	-0.0759793	-0.132036	-0.314305	-0.0652234	1.33158	1.5708	0	0	-0.0885145	-0.181986	-0.15698	1.10621	1.5708	0	0
9.97	2.85003	1.42096	-1.15822	0.654463	0.819994	0.955548	-0.0247839	0.00508871	-0.25622	0.439269	-0.274414	0	0	-0.102969	-0.0957819	-0.00148808	0.24119	-0.341318	0	0	-0.56205	0.19919	-0.0766682	-0.121136	-0.316065	-0.0611788	1.32823	1.5708	0	0	-0.0798549	-0.183902	-0.155208	1.10548	1.5708	0	0
9.98	2.84924	1.42104	-1.15777	0.654456	0.820046	0.955536	-0.0247412	0.00488747	-0.254867	0.438913	-0.274856	0	0	-0.102744	-0.0959904	-0.00189613	0.242165	-0.340166	0	0	-0.561794	0.19845	-0.0771141	-0.109598	-0.318069	-0.0566729	1.32388	1.5708	0	0	-0.0708566	-0.186056	-0.153045	1.10427	1.5708	0	0
9.99	2.84984	1.42081	-1.15893	0.654491	0.820108	0.955566	-0.0249365	0.00472336	-0.254103	0.439094	-0.274895	0	0	-0.102659	-0.0960355	-0.00311038	0.244	-0.339135	0	0	-0.561901	0.197588	-0.0771877	-0.0978756	-0.319806	-0.0518798	1.319	1.5708	0	0	-0.0614534	-0.18821	-0.150617	1.10265	1.5708	0	0
10	2.849	1.42059	-1.15851	0.654491	0.820149	0.955557	-0.0248198	0.00470812	-0.25412	0.439818	-0.27477	0	0	-0.102411	-0.0961094	-0.00323692	0.244989	-0.338984	0	0	-0.562287	0.197164	-0.077007	-0.0866521	-0.321186	-0.0478427	1.31498	1.5708	0	0	-0.0518933	-0.189897	-0.148522	1.10137	1.5708	0	0
10.01	2.84767	1.42033	-1.15722	0.654444	0.820179	0.955555	-0.0248911	0.00483111	-0.254498	0.440243	-0.274686	0	0	-0.102241	-0.096244	-0.00234284	0.245458	-0.339004	0	0	-0.562524	0.19706	-0.077298	-0.0748677	-0.322644	-0.0436143	1.3107	1.5708	0	0	-0.0419586	-0.19142	-0.146489	1.09977	1.5708	0	0
10.02	2.8471	1.41998	-1.15662	0.654382	0.820224	0.955573	-0.0252896	0.0049135	-0.25492	0.440279	-0.274745	0	0	-0.102313	-0.0963239	-0.00186704	0.245952	-0.33878	0	0	-0.562966	0.19692	-0.0774135	-0.0633243	-0.324291	-0.0392717	1.30696	1.56825	0	0	-0.0314943	-0.192906	-0.144285	1.09819	1.5708	0	0
10.03	2.84755	1.41939	-1.15729	0.654364	0.820266	0.95559	-0.0259726	0.00496378	-0.255239	0.440319	-0.274663	0	0	-0.102752	-0.0963846	-0.00209935	0.246484	-0.338995	0	0	-0.565103	0.196702	-0.0714207	-0.0587822	-0.325077	-0.0446049	1.30972	1.5708	0	0	-0.0169398	-0.194623	-0.13595	1.09509	1.5708	0	0
10.04	2.84623	1.41935	-1.15625	0.654361	0.820321	0.955557	-0.0259643	0.00506343	-0.255513	0.440345	-0.274842	0	0	-0.102254	-0.096417	-0.00258705	0.247358	-0.338653	0	0	-0.56512	0.19675	-0.0712384	-0.0472519	-0.326232	-0.041012	1.30647	1.5708	0	0	-0.00599803	-0.195981	-0.134159	1.09232	1.5708	0	0
10.05	2.84451	1.41942	-1.15488	0.654377	0.820381	0.955525	-0.0258495	0.00521258	-0.255672	0.440219	-0.275052	0	0	-0.101699	-0.0964845	-0.00301851	0.248195	-0.338275	0	0	-0.564873	0.196739	-0.0706605	-0.0356096	-0.326968	-0.0382319	1.30271	1.57021	0	0	0.00570735	-0.197252	-0.132047	1.08837	1.5708	0	0
10.06	2.84367	1.41939	-1.15436	0.654402	0.820425	0.955525	-0.0259724	0.00535329	-0.255664	0.439859	-0.275241	0	0	-0.102039	-0.0967442	-0.00302076	0.248167	-0.338025	0	0	-0.564868	0.196572	-0.0698586	-0.0237519	-0.327517	-0.0359375	1.29868	1.56926	0	0	0.0180863	-0.198339	-0.129943	1.08357	1.5708	0	0
10.07	2.84315	1.41923	-1.1541	0.654424	0.820444	0.955531	-0.0262444	0.00545592	-0.255779	0.439555	-0.275383	0	0	-0.102577	-0.0969848	-0.00275818	0.247689	-0.337843	0	0	-0.565061	0.196427	-0.0689696	-0.0117743	-0.328127	-0.0331475	1.29439	1.56702	0	0	0.031041	-0.199364	-0.127605	1.07777	1.5708	0	0
10.08	2.84313	1.41905	-1.15445	0.654443	0.820439	0.955527	-0.0264538	0.00536076	-0.256168	0.439506	-0.275582	0	0	-0.102677	-0.0969229	-0.00251671	0.247782	-0.337592	0	0	-0.565261	0.196224	-0.0678215	0.000373409	-0.329101	-0.0293495	1.28975	1.56221	0	0	0.0446767	-0.200082	-0.125237	1.0709	1.5708	0	0
